<!--?xml version="1.0" standalone="no"?-->
              <svg id="sw-js-blob-svg" viewBox="0 0 100 100" xmlns="http://www.w3.org/2000/svg" version="1.1">
                    <defs> 
                        <linearGradient id="sw-gradient" x1="0" x2="1" y1="1" y2="0">
                            <stop id="stop1" stop-color="rgba(255, 59, 0, 0.6313725490196078)" offset="0%"></stop>
                            <stop id="stop2" stop-color="rgba(255, 59, 0, 0.6313725490196078)" offset="100%"></stop>
                        </linearGradient>
                    </defs>
                <path fill="url(#sw-gradient)" d="M24.1,-27C31.9,-22.2,39.3,-15.2,41.8,-6.5C44.3,2.1,42,12.5,36.6,20.5C31.2,28.6,22.9,34.3,14.3,36.1C5.6,37.9,-3.3,35.8,-11.7,32.6C-20.2,29.4,-28.1,25.1,-32.7,18.3C-37.3,11.5,-38.5,2.3,-36.8,-6.3C-35,-14.9,-30.4,-22.8,-23.8,-27.8C-17.1,-32.9,-8.6,-35.1,-0.2,-34.8C8.2,-34.6,16.3,-31.9,24.1,-27Z" width="100%" height="100%" transform="translate(50 50)" stroke-width="0" style="transition: 0.3s;" stroke="url(#sw-gradient)"></path>
              </svg>